#define Full_width 15
#define Full_height 15
static unsigned char Full_bits[] = {
   0x00, 0x00, 0x00, 0x00, 0xfe, 0x3f, 0xfe, 0x3f, 0xfe, 0x3f, 0xfe, 0x3f,
   0xfe, 0x3f, 0xfe, 0x3f, 0xfe, 0x3f, 0xfe, 0x3f, 0xfe, 0x3f, 0xfe, 0x3f,
   0xfe, 0x3f, 0x00, 0x00, 0x00, 0x00 };
