#define grid_width 15
#define grid_height 15
static unsigned char grid_bits[] = {
   0x00, 0x00, 0x00, 0x00, 0x7e, 0x3f, 0x7e, 0x3f, 0x7e, 0x3f, 0x7e, 0x3f,
   0x7e, 0x3f, 0x00, 0x00, 0x7e, 0x3f, 0x7e, 0x3f, 0x7e, 0x3f, 0x7e, 0x3f,
   0x7e, 0x3f, 0x00, 0x00, 0x00, 0x00 };
