#define TabbedSimplest_width 15
#define TabbedSimplest_height 15
static unsigned char TabbedSimplest_bits[] = {
   0x00, 0x00, 0x00, 0x00, 0x7e, 0x3f, 0x00, 0x00, 0xfe, 0x3f, 0xfe, 0x3f,
   0xfe, 0x3f, 0xfe, 0x3f, 0xfe, 0x3f, 0xfe, 0x3f, 0xfe, 0x3f, 0xfe, 0x3f,
   0xfe, 0x3f, 0x00, 0x00, 0x00, 0x00 };
