#define unknown_width 15
#define unknown_height 15
static unsigned char unknown_bits[] = {
   0x00, 0x00, 0xe0, 0x03, 0xf0, 0x07, 0x30, 0x06, 0x00, 0x06, 0x00, 0x06,
   0x00, 0x07, 0x80, 0x03, 0x80, 0x01, 0x80, 0x01, 0x00, 0x00, 0x80, 0x01,
   0x80, 0x01, 0x00, 0x00, 0x00, 0x00 };
