#define mail_width 15
#define mail_height 15
static unsigned char mail_bits[] = {
   0x00, 0x00, 0x00, 0x00, 0xe0, 0x03, 0xf0, 0x07, 0xf0, 0x07, 0xf0, 0x07,
   0xf0, 0x07, 0xf0, 0x07, 0xe0, 0x03, 0xc0, 0x01, 0xf0, 0x07, 0xf8, 0x0f,
   0xfc, 0x1f, 0xfc, 0x1f, 0x00, 0x00 };
