#define mail_width 15
#define mail_height 15
static unsigned char mail_bits[] = {
   0x00, 0x00, 0x00, 0x00, 0x00, 0x00, 0xfc, 0x1f, 0xf2, 0x27, 0xce, 0x39,
   0x3e, 0x3e, 0xfe, 0x3f, 0xfe, 0x3f, 0xfe, 0x3f, 0xfe, 0x3f, 0xfe, 0x3f,
   0x00, 0x00, 0x00, 0x00, 0x00, 0x00 };
