#define muziek_width 15
#define muziek_height 15
static unsigned char muziek_bits[] = {
   0x00, 0x00, 0x00, 0x00, 0x80, 0x03, 0x80, 0x07, 0x80, 0x04, 0x80, 0x04,
   0x80, 0x00, 0x80, 0x00, 0x80, 0x00, 0xe0, 0x00, 0xf0, 0x00, 0xf0, 0x00,
   0x60, 0x00, 0x00, 0x00, 0x00, 0x00 };
