#define mail_width 15
#define mail_height 15
static unsigned char mail_bits[] = {
   0x00, 0x00, 0x00, 0x00, 0xf8, 0x0f, 0x08, 0x08, 0xe8, 0x0b, 0x08, 0x08,
   0xe8, 0x0b, 0x08, 0x08, 0xe8, 0x0b, 0x08, 0x08, 0x68, 0x08, 0x08, 0x08,
   0xf8, 0x0f, 0x00, 0x00, 0x00, 0x00 };
