#define terminals_width 15
#define terminals_height 15
static unsigned char terminals_bits[] = {
   0x00, 0x00, 0x00, 0x00, 0xff, 0x7f, 0xf9, 0x7f, 0xf9, 0x7f, 0xf9, 0x7f,
   0xff, 0x7f, 0xff, 0x7f, 0xff, 0x7f, 0xff, 0x7f, 0xff, 0x7f, 0xff, 0x7f,
   0xff, 0x7f, 0x00, 0x00, 0x00, 0x00 };
