#define web_width 15
#define web_height 15
static unsigned char web_bits[] = {
   0x00, 0x00, 0x00, 0x00, 0xe0, 0x03, 0xf8, 0x0f, 0xf8, 0x0f, 0xfc, 0x1f,
   0xec, 0x16, 0x7c, 0x1b, 0xac, 0x1d, 0xfc, 0x1f, 0xf8, 0x0f, 0xf8, 0x0f,
   0xe0, 0x03, 0x00, 0x00, 0x00, 0x00 };
