#define terminals_width 15
#define terminals_height 15
static unsigned char terminals_bits[] = {
   0x00, 0x00, 0x00, 0x00, 0xfe, 0x3f, 0xf2, 0x3f, 0xf2, 0x3f, 0xf2, 0x3f,
   0xfe, 0x3f, 0xfe, 0x3f, 0xfe, 0x3f, 0xfe, 0x3f, 0xfe, 0x3f, 0xfe, 0x3f,
   0xfe, 0x3f, 0x00, 0x00, 0x00, 0x00 };
