#define unknown_width 15
#define unknown_height 15
static unsigned char unknown_bits[] = {
   0x00, 0x00, 0x00, 0x00, 0xfc, 0x1f, 0xfc, 0x1f, 0xfc, 0x1f, 0xfc, 0x1f,
   0xfc, 0x1f, 0xfc, 0x1f, 0xfc, 0x1f, 0xfc, 0x1f, 0xfc, 0x1f, 0xfc, 0x1f,
   0xfc, 0x1f, 0x00, 0x00, 0x00, 0x00 };
